<svg width="24" height="32" viewBox="0 0 24 32" fill="none" xmlns="http://www.w3.org/2000/svg">
<path d="M0 19.6215C0 18.1495 0.388664 16.46 1.16599 14.5531C1.94332 12.6461 2.94737 10.7893 4.17814 9.0162C6.70445 5.57031 8.90688 2.96079 10.753 1.20439L11.9676 0C12.3725 0.434919 12.8259 0.836382 13.3117 1.20439C13.9757 1.90695 14.996 3.06116 16.3563 4.70047C17.7166 6.33978 18.8988 7.79509 19.8704 9.1333C21.0202 10.8228 22.0081 12.6461 22.8016 14.5698C23.5951 16.4935 24 18.183 24 19.6383C24 21.311 23.6923 22.9002 23.0607 24.4224C22.4292 25.9446 21.587 27.2661 20.5182 28.3701C19.4494 29.4741 18.17 30.3607 16.6802 31.0131C15.1903 31.6654 13.6194 32 11.9676 32C10.3482 32 8.80972 31.6822 7.33603 31.0465C5.86235 30.4109 4.583 29.5578 3.51417 28.4537C2.44534 27.3664 1.58704 26.045 0.955465 24.5227C0.323886 23.0005 0 21.3612 0 19.6215ZM3.65992 14.7203C3.65992 16.1087 3.93522 17.2128 4.50202 18.0491C5.06883 18.8688 5.92713 19.287 7.07692 19.287C8.24292 19.287 9.10122 18.8688 9.68421 18.0491C10.251 17.2295 10.5425 16.1255 10.5587 14.7203C10.5425 13.3152 10.251 12.2112 9.68421 11.3748C9.11741 10.5551 8.24292 10.137 7.07692 10.137C5.92713 10.137 5.06883 10.5551 4.50202 11.3748C3.93522 12.2112 3.65992 13.3152 3.65992 14.7203ZM6.20243 14.7203C6.20243 14.4694 6.20243 14.2687 6.20243 14.1349C6.20243 14.001 6.21862 13.817 6.23482 13.5829C6.25101 13.3487 6.26721 13.1647 6.31579 13.0476C6.36437 12.9305 6.39676 12.7799 6.46154 12.6461C6.52632 12.5123 6.60729 12.3952 6.70445 12.345C6.81781 12.2781 6.93118 12.2446 7.07692 12.2446C7.30364 12.2446 7.48178 12.3116 7.61134 12.4454C7.74089 12.5792 7.83806 12.7967 7.88664 13.081C7.93522 13.3821 7.96761 13.6163 7.98381 13.8338C8 14.0512 8 14.3356 8 14.7036C8 15.0883 8 15.3727 7.98381 15.5734C7.96761 15.7742 7.93522 16.0251 7.88664 16.3262C7.83806 16.6106 7.74089 16.828 7.61134 16.9618C7.48178 17.0957 7.30364 17.1626 7.07692 17.1626C6.93118 17.1626 6.81781 17.1291 6.70445 17.0622C6.59109 16.9953 6.51012 16.8949 6.46154 16.7611C6.39676 16.6273 6.34818 16.4767 6.31579 16.3596C6.2834 16.2258 6.25101 16.0418 6.23482 15.8244C6.21862 15.5902 6.20243 15.4062 6.20243 15.2891C6.20243 15.172 6.20243 14.9712 6.20243 14.7203ZM7.15789 27.6843H9.29555L17.3765 9.71877H15.1903L7.15789 27.6843ZM14.1215 22.6827C14.1377 24.0878 14.4453 25.1918 15.0121 26.0282C15.5789 26.8479 16.4534 27.2661 17.6032 27.2661C18.7692 27.2661 19.6275 26.8479 20.1943 26.0282C20.7611 25.2086 21.0364 24.0878 21.0526 22.6827C21.0364 21.2776 20.7611 20.1735 20.1943 19.3539C19.6275 18.5342 18.7692 18.116 17.6032 18.116C16.4534 18.116 15.5789 18.5342 15.0121 19.3539C14.4292 20.1735 14.1377 21.2776 14.1215 22.6827ZM16.664 22.6827C16.664 22.298 16.664 22.0136 16.6802 21.8129C16.6964 21.6121 16.7287 21.3612 16.7773 21.0601C16.8259 20.759 16.9231 20.5583 17.0526 20.4245C17.1822 20.2906 17.3603 20.2237 17.587 20.2237C17.7328 20.2237 17.8624 20.2572 17.9757 20.3241C18.0891 20.391 18.17 20.4914 18.2348 20.6419C18.2996 20.7925 18.3482 20.9263 18.3968 21.0434C18.4453 21.1605 18.4615 21.3445 18.4777 21.5787L18.4939 22.114V22.6827C18.4939 22.9503 18.4939 23.1511 18.4939 23.2682L18.4777 23.8034L18.3968 24.3387L18.2348 24.7402L17.9757 25.058L17.587 25.1584C17.3603 25.1584 17.1822 25.0915 17.0526 24.9577C16.9231 24.8238 16.8259 24.6064 16.7773 24.322C16.7287 24.0209 16.6964 23.77 16.6802 23.5693C16.664 23.3685 16.664 23.0674 16.664 22.6827Z" fill="#FFE7E7"/>
</svg>
