<svg width="35" height="35" viewBox="0 0 35 35" fill="none" xmlns="http://www.w3.org/2000/svg">
<path d="M27.1031 0V1.4H33.4031V5.6H30.6031V7H33.4031V11.2H30.6031V12.6H33.4031V16.8H27.1031V18.2H33.4031V22.4H30.6031V23.8H33.4031V28H30.6031V29.4H33.4031V33.6H27.1031V35H34.8031V0H27.1031ZM6.80312 4.9C6.80312 8.91133 6.54609 11.3613 6.16875 13.0156C5.79141 14.6699 5.31562 15.5367 4.79063 16.4937C4.26562 17.4508 3.69141 18.5008 3.28125 20.3C2.93125 21.8258 2.69062 23.9477 2.625 27.0156L1.00625 25.3969L0 26.4031L2.8 29.2031L3.30312 29.6844L3.80625 29.2031L6.60625 26.4031L5.6 25.3969L4.025 26.9719C4.09062 24.016 4.32031 22.0117 4.6375 20.6281C5.01484 18.982 5.49062 18.1316 6.01562 17.1719C6.54063 16.2121 7.11484 15.1293 7.525 13.3219C7.93516 11.5145 8.20312 8.97148 8.20312 4.9H6.80312ZM14.5031 4.9C14.5031 8.91133 14.2461 11.3613 13.8687 13.0156C13.4914 14.6699 13.0156 15.5367 12.4906 16.4937C11.9656 17.4508 11.3914 18.5008 10.9812 20.3C10.6312 21.8258 10.3906 23.9477 10.325 27.0156L8.70625 25.3969L7.7 26.4031L10.5 29.2031L11.0031 29.6844L11.5062 29.2031L14.3062 26.4031L13.3 25.3969L11.725 26.9719C11.7906 24.016 12.0203 22.0117 12.3375 20.6281C12.7148 18.982 13.1906 18.1316 13.7156 17.1719C14.2406 16.2121 14.8148 15.1293 15.225 13.3219C15.6352 11.5145 15.9031 8.97148 15.9031 4.9H14.5031ZM22.2031 4.9C22.2031 8.91133 21.9461 11.3613 21.5688 13.0156C21.1914 14.6699 20.7156 15.5367 20.1906 16.4937C19.6656 17.4508 19.0914 18.5008 18.6812 20.3C18.3312 21.8258 18.0906 23.9477 18.025 27.0156L16.4062 25.3969L15.4 26.4031L18.2 29.2031L18.7031 29.6844L19.2062 29.2031L22.0063 26.4031L21 25.3969L19.425 26.9719C19.4906 24.016 19.7203 22.0117 20.0375 20.6281C20.4148 18.982 20.8906 18.1316 21.4156 17.1719C21.9406 16.2121 22.5148 15.1293 22.925 13.3219C23.3352 11.5145 23.6031 8.97148 23.6031 4.9H22.2031Z" fill="#FFE7E7"/>
</svg>
