<svg width="17" height="37" viewBox="0 0 17 37" fill="none" xmlns="http://www.w3.org/2000/svg">
<path d="M0 28.35C0 26.9333 0.333988 25.6167 0.985265 24.3833C1.63654 23.15 2.55501 22.1333 3.74067 21.3167V4.78333C3.74067 3.45 4.19155 2.31667 5.11002 1.4C6.02849 0.483334 7.16405 0 8.5 0C9.85265 0 10.9882 0.466667 11.9067 1.38333C12.8251 2.31667 13.2927 3.43333 13.2927 4.76667V21.3C14.4784 22.1167 15.3802 23.15 16.0314 24.3667C16.6827 25.5833 17 26.9167 17 28.3333C17 29.8667 16.6159 31.3 15.8644 32.6C15.113 33.9 14.0776 34.9333 12.775 35.6833C11.4725 36.4333 10.053 36.8167 8.5 36.8167C6.96365 36.8167 5.5442 36.4333 4.24165 35.6833C2.9391 34.9333 1.90373 33.9 1.13556 32.6C0.367388 31.3 0 29.8833 0 28.35ZM2.9391 28.35C2.9391 29.9 3.49018 31.2333 4.57564 32.3333C5.6611 33.4333 6.98035 33.9833 8.5167 33.9833C10.0697 33.9833 11.4057 33.4333 12.5246 32.3167C13.6434 31.2 14.2112 29.8833 14.2112 28.3667C14.2112 27.3333 13.944 26.3667 13.4096 25.4833C12.8752 24.6 12.1405 23.9167 11.2053 23.4333L10.7377 23.2C10.5707 23.1333 10.4872 22.9667 10.4872 22.7167V4.78333C10.4872 4.25 10.3035 3.8 9.91945 3.43333C9.53536 3.08333 9.06778 2.9 8.5 2.9C7.96562 2.9 7.49804 3.08333 7.11395 3.43333C6.72986 3.78333 6.54617 4.23333 6.54617 4.78333V22.6833C6.54617 22.9333 6.46267 23.1 6.31238 23.1667L5.86149 23.4C4.94303 23.8833 4.22495 24.5667 3.70727 25.45C3.18959 26.3333 2.9391 27.2833 2.9391 28.35ZM4.24165 28.35C4.24165 29.5333 4.64244 30.55 5.46071 31.3833C6.27898 32.2167 7.24754 32.6333 8.3998 32.6333C9.55206 32.6333 10.5373 32.2167 11.389 31.3833C12.2407 30.55 12.6582 29.5333 12.6582 28.3667C12.6582 27.3167 12.2908 26.3833 11.5727 25.5833C10.8546 24.7833 9.96955 24.3 8.93419 24.1667V11.9C8.93419 11.8 8.88409 11.6833 8.76719 11.5833C8.65029 11.4667 8.5334 11.4167 8.3998 11.4167C8.24951 11.4167 8.13261 11.4667 8.04912 11.55C7.96562 11.65 7.91552 11.75 7.91552 11.9V24.1333C6.89686 24.2833 6.02849 24.75 5.31041 25.55C4.59234 26.3667 4.24165 27.2833 4.24165 28.35Z" fill="#FFE7E7"/>
</svg>
