<svg width="144" height="144" viewBox="0 0 144 144" fill="none" xmlns="http://www.w3.org/2000/svg">
<path d="M31.0177 62.6517H34.3905C34.8607 71.2397 38.1951 79.2916 43.9354 85.6955L41.5514 88.0807C39.5728 90.0593 42.5841 93.0157 44.5353 91.0645L48.3607 87.2391C48.364 87.2358 48.3673 87.2325 48.3706 87.2292C49.1946 86.4041 49.1946 85.0693 48.3706 84.2442C42.0403 77.9128 38.5532 69.4962 38.5532 60.5423C38.5532 51.5885 42.0403 43.1707 48.3706 36.8393C56.228 28.983 67.5439 25.5553 78.3864 27.6174L69.5468 50.9095C65.2764 52.0312 62.1167 55.9248 62.1167 60.5423C62.1167 62.5847 62.7352 64.4842 63.7943 66.0663L61.9069 71.0398C60.059 75.9089 65.0347 80.6583 69.8291 78.5105C73.2019 76.9987 73.1437 73.8248 74.874 70.0982C79.006 68.8853 82.0316 65.061 82.0316 60.5423C82.0316 58.601 81.4724 56.7872 80.5078 55.2546L89.3969 31.8351C91.7073 33.2314 93.8463 34.9079 95.7766 36.8393C102.108 43.1707 105.595 51.5885 105.595 60.5423C105.595 69.4962 102.108 77.9128 95.7766 84.2442C94.9526 85.0693 94.9526 86.4041 95.7766 87.2292C95.7876 87.2391 95.7986 87.2501 95.8096 87.26L99.613 91.0645C101.571 93.0223 104.574 90.0571 102.597 88.0807L100.213 85.6955C105.953 79.2916 109.288 71.2397 109.758 62.6517H113.131C115.92 62.6517 115.924 58.4319 113.131 58.4319H109.758C109.288 49.8438 105.952 41.7931 100.213 35.388L102.597 33.0029C104.57 31.0309 101.588 28.0437 99.613 30.019L97.2279 32.4041C95.28 30.6606 93.1685 29.1291 90.9163 27.8316L91.2184 27.0373C92.3719 23.9985 90.8394 20.5873 87.8005 19.4326C84.7617 18.279 81.3505 19.8116 80.1969 22.8504L79.9047 23.6184C78.0073 23.2185 76.0957 22.9691 74.1852 22.8658V19.4853C74.1852 16.6959 69.9642 16.6915 69.9642 19.4853V22.8735C61.5168 23.3602 53.3452 26.6693 46.9226 32.4052L44.5364 30.019C42.5643 28.0459 39.576 31.0265 41.5514 33.0029L43.9365 35.3869C38.1962 41.792 34.8607 49.8438 34.3905 58.4319H31.0188C28.2283 58.4319 28.225 62.6517 31.0177 62.6517ZM68.1021 74.6598C66.7441 75.2673 65.3258 73.9215 65.8521 72.5372L67.1254 69.1809C68.0856 69.7324 69.1447 70.129 70.2697 70.3355C69.0436 73.2227 69.1479 74.1906 68.1021 74.6598ZM72.0736 66.2794C68.9106 66.2794 66.3365 63.7053 66.3365 60.5423C66.3365 57.3783 68.9106 54.8053 72.0736 54.8053C75.2366 54.8053 77.8107 57.3783 77.8107 60.5423C77.8107 63.7053 75.2366 66.2794 72.0736 66.2794ZM87.2721 25.5388L77.2207 52.0213C76.2737 51.4467 75.2234 51.026 74.1039 50.7931L84.141 24.3479C84.9265 22.2813 88.0598 23.4635 87.2721 25.5388Z" fill="#FFF3F3"/>
<path d="M79.6718 88.4126H64.4755C61.685 88.4126 61.6817 92.6324 64.4755 92.6324H79.6718C82.4623 92.6324 82.4656 88.4126 79.6718 88.4126Z" fill="#FFF3F3"/>
<path d="M114.884 17.7319C103.448 6.29736 88.2455 0 72.0736 0C57.2772 0 43.0324 5.39539 31.9636 15.1919C29.8751 17.0409 32.6679 20.2039 34.7608 18.3527C45.0571 9.2395 58.3089 4.21985 72.0736 4.21985C103.13 4.21985 128.396 29.4862 128.396 60.5424C128.396 74.3071 123.376 87.5588 114.263 97.8552C112.414 99.9437 115.573 102.744 117.424 100.651C127.221 89.5836 132.616 75.3387 132.616 60.5424C132.616 44.3705 126.319 29.1665 114.884 17.7319Z" fill="#FFF3F3"/>
<path d="M72.0736 111.305C100.065 111.305 122.837 88.5321 122.837 60.5422C122.837 32.5513 100.065 9.77881 72.0736 9.77881C44.0826 9.77881 21.3113 32.5513 21.3113 60.5422C21.3113 88.5321 44.0826 111.305 72.0736 111.305ZM72.0736 13.9998C97.7377 13.9998 118.616 34.8782 118.616 60.5422C118.616 86.2052 97.7377 107.085 72.0736 107.085C46.4095 107.085 25.5311 86.2052 25.5311 60.5422C25.5311 34.8782 46.4106 13.9998 72.0736 13.9998Z" fill="#FFF3F3"/>
<path d="M102.441 126.267H86.3196V119.383C95.4174 117.179 103.949 112.884 111.174 106.766C113.302 104.963 110.578 101.74 108.447 103.546C98.3024 112.134 85.3857 116.864 72.0736 116.864C41.0175 116.864 15.7522 91.5986 15.7522 60.5425C15.7522 47.2303 20.4818 34.3137 29.0698 24.17C30.8727 22.0409 27.6537 19.3097 25.8486 21.4421C16.6157 32.3472 11.5312 46.2328 11.5312 60.5425C11.5312 76.7132 17.8286 91.9172 29.2632 103.352C37.2612 111.349 47.1017 116.833 57.8276 119.408V126.267H41.7063C35.0717 126.267 29.6752 131.665 29.6752 138.299C29.6752 141.442 32.2317 144 35.376 144H108.771C111.914 144 114.472 141.442 114.472 138.299C114.472 131.665 109.074 126.267 102.441 126.267ZM62.0486 120.263C65.3302 120.807 68.681 121.085 72.0736 121.085C75.4508 121.085 78.8038 120.801 82.0986 120.248V126.267H62.0475V120.263H62.0486ZM108.771 139.78H35.376C34.5597 139.78 33.895 139.116 33.895 138.299C33.895 133.992 37.3997 130.488 41.7063 130.488H102.441C106.748 130.488 110.252 133.992 110.252 138.299C110.252 139.116 109.588 139.78 108.771 139.78Z" fill="#FFF3F3"/>
</svg>
