<svg width="144" height="144" viewBox="0 0 144 144" fill="none" xmlns="http://www.w3.org/2000/svg">
<path d="M141.601 92.3883H112.695C111.428 69.9341 92.1971 52.7594 69.743 54.0274C49.06 55.1952 32.5499 71.7052 31.3821 92.3883H2.48105C1.15641 92.3883 0.082428 93.4622 0.082428 94.7869C0.082428 96.1115 1.15641 97.1855 2.48105 97.1855H141.601C142.926 97.1855 144 96.1115 144 94.7869C144 93.4622 142.926 92.3883 141.601 92.3883ZM36.1793 92.3883C37.4491 73.5087 53.119 58.8354 72.0412 58.8075C90.9615 58.8381 106.629 73.5108 107.898 92.3883H36.1793Z" fill="#FFF3F3"/>
<path d="M110.419 101.983H31.2646C29.94 101.983 28.866 103.057 28.866 104.381C28.866 105.706 29.94 106.78 31.2646 106.78H110.419C111.744 106.78 112.818 105.706 112.818 104.381C112.818 103.057 111.744 101.983 110.419 101.983Z" fill="#FFF3F3"/>
<path d="M103.223 111.577H38.4605C37.1358 111.577 36.0618 112.651 36.0618 113.976C36.0618 115.3 37.1358 116.374 38.4605 116.374H103.223C104.548 116.374 105.622 115.3 105.622 113.976C105.622 112.651 104.548 111.577 103.223 111.577Z" fill="#FFF3F3"/>
<path d="M96.0275 121.172H45.6563C44.3317 121.172 43.2577 122.246 43.2577 123.57C43.2577 124.895 44.3317 125.969 45.6563 125.969H96.0275C97.3521 125.969 98.4261 124.895 98.4261 123.57C98.4261 122.246 97.3521 121.172 96.0275 121.172Z" fill="#FFF3F3"/>
<path d="M86.433 130.766H55.2509C53.9262 130.766 52.8522 131.84 52.8522 133.165C52.8522 134.489 53.9262 135.563 55.2509 135.563H86.433C87.7576 135.563 88.8316 134.489 88.8316 133.165C88.8316 131.84 87.7576 130.766 86.433 130.766Z" fill="#FFF3F3"/>
<path d="M26.4673 85.1924H2.48105C1.15641 85.1924 0.082428 86.2664 0.082428 87.591C0.082428 88.9157 1.15641 89.9896 2.48105 89.9896H26.4673C27.792 89.9896 28.8659 88.9157 28.8659 87.591C28.8659 86.2664 27.792 85.1924 26.4673 85.1924Z" fill="#FFF3F3"/>
<path d="M29.8497 68.6078C29.7961 68.5859 29.7415 68.5661 29.6863 68.5481L3.30144 58.9536C2.07394 58.4553 0.674944 59.0466 0.176929 60.2741C-0.321386 61.5016 0.269876 62.9006 1.49737 63.3986C1.55104 63.4205 1.60561 63.4403 1.66078 63.4583L28.0457 73.0528C29.2732 73.5511 30.6722 72.9598 31.1702 71.7323C31.6685 70.5048 31.0772 69.1058 29.8497 68.6078Z" fill="#FFF3F3"/>
<path d="M55.0566 43.4707L47.8607 26.6803C47.3213 25.4702 45.9034 24.9266 44.6933 25.466C43.5078 25.9946 42.9576 27.3702 43.452 28.5704L50.6479 45.3608C51.026 46.2426 51.8928 46.8144 52.8522 46.8144C53.1772 46.8159 53.4993 46.7496 53.7973 46.6201C55.0146 46.0981 55.5783 44.6883 55.0566 43.4707Z" fill="#FFF3F3"/>
<path d="M96.9726 25.4209C95.7553 24.8992 94.3452 25.4628 93.8232 26.6801L86.6273 43.4705C86.1056 44.6878 86.6693 46.0979 87.8866 46.6199C88.1849 46.7494 88.5066 46.8154 88.8316 46.8142C89.7911 46.8142 90.6579 46.2424 91.036 45.3606L98.2318 28.5703C98.7535 27.353 98.1899 25.9429 96.9726 25.4209Z" fill="#FFF3F3"/>
<path d="M143.705 55.26C143.071 54.0969 141.613 53.6685 140.45 54.3029L114.065 68.6947C112.902 69.3288 112.473 70.7857 113.107 71.9487C113.528 72.7205 114.337 73.2005 115.217 73.1993C115.617 73.1996 116.012 73.0989 116.363 72.9067L142.748 58.5149C143.911 57.8805 144.339 56.4233 143.705 55.26Z" fill="#FFF3F3"/>
<path d="M42.5549 54.7129L18.5687 30.7267C17.6158 29.8062 16.0975 29.8326 15.177 30.7855C14.2793 31.7149 14.2793 33.1886 15.177 34.1184L39.1633 58.1046C40.1161 59.0248 41.6348 58.9984 42.5549 58.0455C43.4526 57.1161 43.4526 55.6424 42.5549 54.7129Z" fill="#FFF3F3"/>
<path d="M72.0412 8.43628C70.7166 8.43628 69.6426 9.51026 69.6426 10.8349V42.017C69.6426 43.3417 70.7166 44.4157 72.0412 44.4157C73.3659 44.4157 74.4398 43.3417 74.4398 42.017V10.8349C74.4398 9.51026 73.3659 8.43628 72.0412 8.43628Z" fill="#FFF3F3"/>
<path d="M128.905 30.7267C127.969 29.7903 126.45 29.7903 125.514 30.7267L101.528 54.7129C100.575 55.6334 100.548 57.1517 101.469 58.1046C102.389 59.0575 103.908 59.0838 104.86 58.1634C104.881 58.1442 104.9 58.1244 104.919 58.1046L128.905 34.1183C129.842 33.1817 129.842 31.6634 128.905 30.7267Z" fill="#FFF3F3"/>
<path d="M141.601 85.1924H117.615C116.29 85.1924 115.216 86.2664 115.216 87.591C115.216 88.9157 116.29 89.9896 117.615 89.9896H141.601C142.926 89.9896 144 88.9157 144 87.591C144 86.2664 142.926 85.1924 141.601 85.1924Z" fill="#FFF3F3"/>
</svg>
