<svg width="144" height="144" viewBox="0 0 144 144" fill="none" xmlns="http://www.w3.org/2000/svg">
<path d="M0 86.035C0 93.1733 2.45515 99.3455 7.41883 104.498C12.3825 109.65 18.4136 112.388 25.619 112.71C26.2061 112.71 26.5263 112.388 26.5263 111.797V104.605C26.5263 104.015 26.2061 103.693 25.619 103.693C21.0289 103.478 17.1327 101.6 13.9303 98.1647C10.7279 94.7298 9.12676 90.6508 9.12676 86.035C9.12676 81.634 10.6212 77.7697 13.6635 74.442C16.7057 71.1144 20.4418 69.2359 24.8718 68.6992L27.7005 68.4309C28.3944 68.4309 28.768 68.1088 28.768 67.5184L29.1416 64.6202C29.7287 58.8237 32.1305 53.9396 36.4537 50.0216C40.7769 46.1036 45.8473 44.1178 51.6649 44.1178C57.4826 44.1178 62.553 46.1036 66.9296 50.0216C71.3062 53.9396 73.7613 58.8237 74.4018 64.6202L74.7754 67.6795C74.7754 68.3235 75.0956 68.6992 75.6827 68.6992H84.3291C89.0793 68.6992 93.1357 70.4167 96.6049 73.8517C100.074 77.2866 101.782 81.312 101.782 86.035C101.782 90.7044 100.181 94.7298 96.9785 98.1647C93.7761 101.6 89.8799 103.425 85.3432 103.693C84.7027 103.693 84.3291 104.015 84.3291 104.605V111.797C84.3291 112.388 84.6494 112.71 85.3432 112.71C92.4418 112.495 98.4729 109.758 103.437 104.605C108.4 99.3992 110.855 93.227 110.855 86.0887C110.855 82.2244 110.108 78.6284 108.614 75.3008C112.777 70.0947 114.858 64.1908 114.858 57.5356C114.858 52.4368 113.577 47.7138 111.069 43.3664C108.56 39.019 105.145 35.584 100.821 33.0615C96.4981 30.5389 91.8547 29.3045 86.8377 29.3045C78.5115 29.3045 71.6264 32.4174 66.129 38.6433C61.7524 36.2818 56.9488 35.101 51.6649 35.101C44.1394 35.101 37.4144 37.4625 31.5967 42.1856C25.7791 46.9087 22.043 52.9199 20.3884 60.2192C14.464 61.6146 9.60712 64.7275 5.76427 69.558C1.92142 74.3884 0 79.8628 0 86.035ZM28.8213 122.854C28.8213 123.766 29.0882 124.625 29.6753 125.483C30.2624 126.342 31.1164 126.933 32.2906 127.255C32.8777 127.362 33.358 127.469 33.7317 127.469C35.8132 127.469 37.2009 126.342 37.8414 124.034L46.2743 92.4756C46.6479 91.1875 46.4878 90.0067 45.8473 88.8796C45.2068 87.7525 44.2461 87.1085 43.0185 86.8401C41.8443 86.4644 40.7235 86.5717 39.656 87.2158C38.5886 87.8062 37.8414 88.7186 37.4678 89.953L29.0348 121.673C28.9281 122.37 28.8213 122.746 28.8213 122.854ZM42.7517 139.384C42.7517 140.404 43.0185 141.316 43.5523 142.175C44.086 143.034 44.9933 143.571 46.3276 143.785C46.9147 143.893 47.3951 144 47.7153 144C48.5693 144 49.3699 143.678 50.1171 143.088C50.8643 142.444 51.3447 141.585 51.5582 140.511L64.3677 92.5829C64.6879 91.3485 64.5812 90.1677 63.9941 89.148C63.407 88.1282 62.4996 87.3768 61.3254 87.0011C60.0979 86.6254 58.9236 86.7328 57.8562 87.3768C56.7887 87.9672 56.0415 88.8796 55.7213 90.1141L42.9118 138.042C42.805 138.848 42.7517 139.331 42.7517 139.384ZM44.9933 20.0731C44.9933 21.3612 45.4203 22.4346 46.3276 23.347L49.7969 26.8893C50.811 27.6944 51.9318 28.0701 53.106 28.0701C54.2268 28.0701 55.2943 27.6407 56.2016 26.8356C57.109 25.9769 57.5893 24.9571 57.5893 23.669C57.5893 22.3809 57.1623 21.2001 56.3084 20.2341L52.8925 16.7454C51.9318 15.833 50.8643 15.4037 49.6901 15.4037C48.4092 15.4037 47.2884 15.8867 46.381 16.7991C45.4737 17.7115 44.9933 18.8386 44.9933 20.0731ZM64.9014 122.961C64.9014 123.82 65.1683 124.678 65.702 125.483C66.2357 126.288 67.0897 126.879 68.1572 127.201C68.7443 127.308 69.2246 127.416 69.4915 127.416C70.3988 127.416 71.3062 127.147 72.1068 126.611C72.9073 126.074 73.4411 125.215 73.7079 123.981L82.1408 92.4219C82.4611 91.1875 82.3543 90.0067 81.7672 88.987C81.1801 87.9135 80.2728 87.2158 79.0986 86.8401C77.8176 86.4644 76.6968 86.5717 75.6294 87.2158C74.5619 87.8062 73.868 88.7186 73.5478 89.953L65.1149 121.673C65.0082 122.478 64.9014 122.907 64.9014 122.961ZM73.6012 43.8494C77.3907 40.2534 81.7672 38.4823 86.8377 38.4823C92.0682 38.4823 96.5515 40.3608 100.181 44.0641C103.864 47.7674 105.678 52.2758 105.678 57.5893C105.678 60.9169 104.771 64.2445 102.903 67.5184C97.7257 62.3123 91.5345 59.7361 84.2758 59.7361H82.5145C81.0734 53.4029 78.0845 48.1431 73.6012 43.8494ZM82.2476 15.672C82.2476 16.9064 82.6746 17.9799 83.5819 18.8386C84.4893 19.6974 85.5567 20.1267 86.8377 20.1267C88.0652 20.1267 89.1327 19.6974 89.9867 18.8923C90.8406 18.0335 91.2676 17.0138 91.2676 15.7257V4.6694C91.2676 3.27395 90.8406 2.14685 90.04 1.28811C89.1861 0.42937 88.172 0 86.891 0C85.5567 0 84.4359 0.42937 83.5819 1.34178C82.7279 2.25419 82.301 3.32762 82.301 4.6694V15.672H82.2476ZM111.763 27.9091C111.763 29.1972 112.243 30.2706 113.204 31.0757C113.951 31.9344 114.912 32.3638 116.139 32.4711C117.367 32.5785 118.488 32.0954 119.448 31.0757L127.134 23.4007C128.095 22.4883 128.522 21.3612 128.522 20.0194C128.522 18.7313 128.095 17.6042 127.188 16.7454C126.28 15.8867 125.213 15.4573 123.932 15.4573C122.811 15.4573 121.797 15.8867 120.836 16.7991L113.204 24.5278C112.243 25.4402 111.763 26.5673 111.763 27.9091ZM116.086 91.5095C116.086 92.7976 116.513 93.9247 117.367 94.8908L120.836 98.2721C121.797 99.0235 122.864 99.3992 124.039 99.3992L124.145 99.5065C125.373 99.5065 126.387 99.0771 127.241 98.2184C128.095 97.3597 128.522 96.2326 128.522 94.9445C128.522 93.6563 128.042 92.6366 127.134 91.8315L123.825 88.2892C122.864 87.4305 121.744 87.0011 120.516 87.0011C119.288 87.0011 118.221 87.4305 117.367 88.3429C116.513 89.2553 116.086 90.2214 116.086 91.5095ZM123.878 57.5356C123.878 58.8237 124.359 59.8435 125.266 60.7022C126.227 61.6683 127.294 62.0977 128.575 62.0977H139.41C140.691 62.0977 141.758 61.6683 142.666 60.7559C143.573 59.8435 144 58.77 144 57.5356C144 56.2475 143.573 55.1741 142.666 54.2617C141.758 53.3492 140.691 52.8662 139.41 52.8662H128.575C127.294 52.8662 126.227 53.3492 125.266 54.2617C124.305 55.1741 123.878 56.2475 123.878 57.5356Z" fill="#FFF3F3"/>
</svg>
