<svg width="144" height="144" viewBox="0 0 144 144" fill="none" xmlns="http://www.w3.org/2000/svg">
<g clip-path="url(#clip0)">
<path d="M92.0126 0.77793C90.8698 -0.25931 89.1298 -0.25931 87.9871 0.77793C86.6815 1.95523 56.7998 29.266 42.9234 60.9196C41.4277 60.3945 39.7059 60.001 37.4798 60.001C32.227 60.001 29.4086 61.961 27.144 63.5371C25.1666 64.9141 23.6051 66.0009 20.2329 66.0009C16.8667 66.0009 15.3052 64.9138 13.3305 63.5399C11.0688 61.9638 8.25037 60.001 3.00061 60.001C1.34238 60.001 0.000549316 61.3428 0.000549316 63.0011C0.000549316 64.6593 1.34238 66.0011 3.00061 66.0011C6.36686 66.0011 7.92835 67.0882 9.90298 68.4621C12.1648 70.0382 14.9832 72.001 20.2329 72.001C25.4858 72.001 28.307 70.0382 30.5716 68.4621C32.549 67.0882 34.1105 66.0011 37.4798 66.0011C40.8548 66.0011 42.4194 67.0882 44.3997 68.4649C46.6643 70.041 49.4854 72.001 54.7414 72.001C59.9942 72.001 62.8154 70.041 65.0831 68.4649C67.0606 67.0879 68.6252 66.0011 72.0001 66.0011C73.6584 66.0011 75.0002 64.6593 75.0002 63.0011C75.0002 61.3428 73.6584 60.001 72.0001 60.001C66.7445 60.001 63.923 61.961 61.6556 63.5371C59.6781 64.9141 58.1135 66.0009 54.7417 66.0009C51.5895 66.0009 50.0103 65.0393 48.2049 63.7919C59.4888 37.7313 82.9842 13.8801 90.0002 7.12343C99.343 16.1262 138 55.46 138 90.0005C138 116.467 116.467 138 90.0002 138C78.0537 138 66.7498 133.55 57.9999 125.693C61.2461 125.092 63.3419 123.675 65.0834 122.464C67.0609 121.087 68.6254 120 72.0004 120C73.6586 120 75.0005 118.659 75.0005 117C75.0005 115.342 73.6586 114 72.0004 114C66.7447 114 63.9233 115.96 61.6559 117.536C59.6784 118.913 58.1138 120 54.742 120C51.367 120 49.8024 118.913 47.825 117.536C45.5573 115.96 42.7361 114 37.4804 114C32.2275 114 29.4092 115.96 27.1446 117.536C25.1671 118.913 23.6056 120 20.2335 120C16.8672 120 15.3057 118.913 13.3311 117.539C11.0693 115.963 8.25094 114 3.00118 114C1.34294 114 0.00111181 115.342 0.00111181 117C0.00111181 118.659 1.34294 120 3.00118 120C6.36742 120 7.92891 121.087 9.90355 122.461C12.1653 124.037 14.9837 126 20.2335 126C25.4863 126 28.3075 124.037 30.5721 122.461C32.5496 121.087 34.1111 120 37.4804 120C40.8554 120 42.4199 121.087 44.4002 122.464C45.6222 123.314 47.0479 124.251 48.8892 124.957C59.1828 137.05 74.1044 144 90.0002 144C119.774 144 144 119.775 144 90.0005C143.999 48.2736 94.1337 2.69688 92.0126 0.77793Z" fill="#FFF3F3"/>
<path d="M3.00061 102C6.36686 102 7.92835 103.088 9.90298 104.461C12.1648 106.038 14.9832 108 20.2329 108C21.8911 108 23.233 106.659 23.233 105C23.233 103.342 21.8911 102 20.2329 102C16.8667 102 15.3052 100.913 13.3305 99.5393C11.0688 97.9632 8.25037 96.0004 3.00061 96.0004C1.34238 96.0004 0.000549316 97.3422 0.000549316 99.0004C0.000549316 100.659 1.34238 102 3.00061 102Z" fill="#FFF3F3"/>
<path d="M37.4798 96.0006C35.8216 96.0006 34.4798 97.3424 34.4798 99.0007C34.4798 100.659 35.8216 102.001 37.4798 102.001C40.8548 102.001 42.4194 103.088 44.3968 104.464C46.6645 106.041 49.4857 108.001 54.7414 108.001C59.9942 108.001 62.8154 106.041 65.0831 104.464C67.0606 103.087 68.6251 102.001 72.0001 102.001C75.4308 102.001 77.1768 103.117 79.3829 104.529C81.9287 106.155 84.8146 108.001 89.9999 108.001C91.6582 108.001 93 106.659 93 105.001C93 103.343 91.6582 102.001 89.9999 102.001C86.5693 102.001 84.8233 100.884 82.6172 99.4723C80.0714 97.8464 77.1855 96.0006 72.0001 96.0006C66.7444 96.0006 63.923 97.9606 61.6556 99.5367C59.6781 100.914 58.1135 102 54.7417 102C51.3667 102 49.8021 100.913 47.8219 99.5367C45.557 97.9603 42.7358 96.0006 37.4798 96.0006Z" fill="#FFF3F3"/>
<path d="M37.4798 78.0009C32.227 78.0009 29.4086 79.9609 27.144 81.537C25.1666 82.914 23.6051 84.0007 20.2329 84.0007C16.8667 84.0007 15.3052 82.9137 13.3305 81.5398C11.0688 79.9637 8.25037 78.0009 3.00061 78.0009C1.34238 78.0009 0.000549316 79.3427 0.000549316 81.0009C0.000549316 82.6592 1.34238 84.001 3.00061 84.001C6.36686 84.001 7.92835 85.088 9.90298 86.4619C12.1648 88.038 14.9832 90.0008 20.2329 90.0008C25.4858 90.0008 28.307 88.038 30.5716 86.4619C32.549 85.088 34.1105 84.001 37.4798 84.001C39.1381 84.001 40.4799 82.6592 40.4799 81.0009C40.4799 79.3424 39.1381 78.0009 37.4798 78.0009Z" fill="#FFF3F3"/>
<path d="M65.0831 86.4643C67.0606 85.0874 68.6252 84.0006 72.0001 84.0006C75.3664 84.0006 76.9279 85.0876 78.9025 86.4615C81.1643 88.0376 83.9827 90.0005 89.2324 90.0005C94.4853 90.0005 97.3065 88.0376 99.5711 86.4615C101.549 85.0876 103.11 84.0006 106.479 84.0006C108.138 84.0006 109.479 82.6588 109.479 81.0006C109.479 79.3423 108.138 78.0005 106.479 78.0005C101.226 78.0005 98.4081 79.9605 96.1435 81.5366C94.1661 82.9136 92.6046 84.0003 89.2324 84.0003C85.8662 84.0003 84.3047 82.9133 82.3301 81.5394C80.0683 79.9633 77.2499 78.0005 72.0001 78.0005C66.7445 78.0005 63.923 79.9605 61.6556 81.5366C59.6781 82.9136 58.1135 84.0003 54.7417 84.0003C53.0834 84.0003 51.7416 85.3422 51.7416 87.0004C51.7416 88.6586 53.0834 90.0005 54.7417 90.0005C59.9942 90.0005 62.8154 88.0405 65.0831 86.4643Z" fill="#FFF3F3"/>
</g>
<defs>
<clipPath id="clip0">
<rect width="144" height="144" fill="white"/>
</clipPath>
</defs>
</svg>
