<svg width="144" height="144" viewBox="0 0 144 144" fill="none" xmlns="http://www.w3.org/2000/svg">
<path fill-rule="evenodd" clip-rule="evenodd" d="M85.5758 10.9435L95.837 3.09375L74.2104 48.1904C73.069 47.6818 71.8374 47.4049 70.5883 47.3752L71.7539 37.2711C72.1835 33.0315 73.3052 28.8907 75.074 25.0148C77.3075 20.3027 80.3232 16.0049 83.9938 12.3014C84.4893 11.8125 85.0166 11.3588 85.5758 10.9435ZM74.1445 58.3462C73.5348 59.9052 72.0341 60.9313 70.3597 60.9357C68.1097 60.9357 66.2849 59.1108 66.2849 56.8597C66.2849 54.6097 68.1097 52.7849 70.3597 52.7849C72.6108 52.7849 74.4357 54.6097 74.4357 56.8597C74.4302 57.241 74.3709 57.6189 74.2588 57.9825C74.2127 58.1012 74.1753 58.2231 74.1445 58.3462ZM60.9681 55.6483L60.973 55.6479V55.6216L60.9681 55.6483ZM60.9681 55.6483L9.95581 59.5525L21.8705 64.5216C22.5121 64.7952 23.1724 65.0237 23.8458 65.2071C28.8885 66.5332 34.1191 66.9935 39.3157 66.5651C43.5586 66.1553 47.707 65.0533 51.594 63.3054L61.1686 59.1537C60.8262 58.0176 60.7576 56.8155 60.9681 55.6483ZM99.7416 90.847C98.3705 85.8142 96.1523 81.0505 93.1827 76.7615C90.7075 73.2887 87.6786 70.2466 84.2168 67.7549L77.6415 62.8781C76.7318 63.9954 75.5782 64.8907 74.2698 65.495L101.772 105.706L100.116 92.9004C100.04 92.2083 99.9152 91.5216 99.7416 90.847Z" fill="#FFF3F3"/>
<path d="M63.1219 130.219L62.3969 141.086H78.3237L77.5986 130.219H63.1219Z" fill="#FFF3F3"/>
<path d="M73.8919 74.5203L68.1021 66.0597C67.8691 66.0026 67.6428 65.9213 67.4176 65.8455L63.4834 124.785H77.2372L73.8919 74.5203Z" fill="#FFF3F3"/>
</svg>
