<svg width="130" height="61" viewBox="0 0 130 61" fill="none" xmlns="http://www.w3.org/2000/svg">
<path d="M26.243 39.9L20.976 56H16.974L13.432 45.098L9.775 56H5.796L0.506 39.9H4.37L8.004 51.216L11.799 39.9H15.249L18.929 51.308L22.678 39.9H26.243ZM40.7891 53.01V56H28.3231V39.9H40.4901V42.89H32.0261V46.386H39.5011V49.284H32.0261V53.01H40.7891ZM54.3567 52.55H46.8817L45.4557 56H41.6377L48.8137 39.9H52.4937L59.6927 56H55.7827L54.3567 52.55ZM53.1837 49.721L50.6307 43.557L48.0777 49.721H53.1837ZM63.8895 42.936H58.7375V39.9H72.7675V42.936H67.6155V56H63.8895V42.936ZM89.5383 39.9V56H85.8123V49.399H78.4983V56H74.7723V39.9H78.4983V46.248H85.8123V39.9H89.5383ZM105.813 53.01V56H93.3475V39.9H105.514V42.89H97.0505V46.386H104.525V49.284H97.0505V53.01H105.813ZM119.036 56L115.931 51.515H115.747H112.504V56H108.778V39.9H115.747C117.173 39.9 118.407 40.1377 119.45 40.613C120.508 41.0883 121.321 41.763 121.888 42.637C122.455 43.511 122.739 44.546 122.739 45.742C122.739 46.938 122.448 47.973 121.865 48.847C121.298 49.7057 120.485 50.365 119.427 50.825L123.038 56H119.036ZM118.967 45.742C118.967 44.8373 118.676 44.1473 118.093 43.672C117.51 43.1813 116.659 42.936 115.54 42.936H112.504V48.548H115.54C116.659 48.548 117.51 48.3027 118.093 47.812C118.676 47.3213 118.967 46.6313 118.967 45.742Z" fill="#FFCCC1" fill-opacity="0.79"/>
<path d="M8.764 27.336C7.21467 27.336 5.712 27.1307 4.256 26.72C2.81867 26.2907 1.66133 25.74 0.784 25.068L2.324 21.652C3.164 22.268 4.16267 22.7627 5.32 23.136C6.47733 23.5093 7.63467 23.696 8.792 23.696C10.08 23.696 11.032 23.5093 11.648 23.136C12.264 22.744 12.572 22.2307 12.572 21.596C12.572 21.1293 12.3853 20.7467 12.012 20.448C11.6573 20.1307 11.1907 19.8787 10.612 19.692C10.052 19.5053 9.28667 19.3 8.316 19.076C6.82267 18.7213 5.6 18.3667 4.648 18.012C3.696 17.6573 2.87467 17.088 2.184 16.304C1.512 15.52 1.176 14.4747 1.176 13.168C1.176 12.0293 1.484 11.0027 2.1 10.088C2.716 9.15467 3.64 8.41733 4.872 7.876C6.12267 7.33467 7.644 7.064 9.436 7.064C10.6867 7.064 11.9093 7.21333 13.104 7.512C14.2987 7.81067 15.344 8.24 16.24 8.8L14.84 12.244C13.0293 11.2173 11.2187 10.704 9.408 10.704C8.13867 10.704 7.196 10.9093 6.58 11.32C5.98267 11.7307 5.684 12.272 5.684 12.944C5.684 13.616 6.02933 14.12 6.72 14.456C7.42933 14.7733 8.50267 15.0907 9.94 15.408C11.4333 15.7627 12.656 16.1173 13.608 16.472C14.56 16.8267 15.372 17.3867 16.044 18.152C16.7347 18.9173 17.08 19.9533 17.08 21.26C17.08 22.38 16.7627 23.4067 16.128 24.34C15.512 25.2547 14.5787 25.9827 13.328 26.524C12.0773 27.0653 10.556 27.336 8.764 27.336ZM35.3555 23.36V27H20.1795V7.4H34.9915V11.04H24.6875V15.296H33.7875V18.824H24.6875V23.36H35.3555ZM51.8726 22.8H42.7726L41.0366 27H36.3886L45.1246 7.4H49.6046L58.3686 27H53.6086L51.8726 22.8ZM50.4446 19.356L47.3366 11.852L44.2286 19.356H50.4446ZM72.8901 27L69.1101 21.54H68.8861H64.9381V27H60.4021V7.4H68.8861C70.6221 7.4 72.1248 7.68933 73.3941 8.268C74.6821 8.84667 75.6715 9.668 76.3621 10.732C77.0528 11.796 77.3981 13.056 77.3981 14.512C77.3981 15.968 77.0435 17.228 76.3341 18.292C75.6435 19.3373 74.6541 20.14 73.3661 20.7L77.7621 27H72.8901ZM72.8061 14.512C72.8061 13.4107 72.4515 12.5707 71.7421 11.992C71.0328 11.3947 69.9968 11.096 68.6341 11.096H64.9381V17.928H68.6341C69.9968 17.928 71.0328 17.6293 71.7421 17.032C72.4515 16.4347 72.8061 15.5947 72.8061 14.512ZM90.372 27.336C88.3746 27.336 86.564 26.9067 84.94 26.048C83.3346 25.1707 82.0653 23.9667 81.132 22.436C80.2173 20.8867 79.76 19.1413 79.76 17.2C79.76 15.2587 80.2173 13.5227 81.132 11.992C82.0653 10.4427 83.3346 9.23867 84.94 8.38C86.564 7.50267 88.384 7.064 90.4 7.064C92.0986 7.064 93.6293 7.36267 94.992 7.96C96.3733 8.55733 97.5306 9.416 98.464 10.536L95.552 13.224C94.2266 11.6933 92.584 10.928 90.624 10.928C89.4106 10.928 88.328 11.1987 87.376 11.74C86.424 12.2627 85.6773 13 85.136 13.952C84.6133 14.904 84.352 15.9867 84.352 17.2C84.352 18.4133 84.6133 19.496 85.136 20.448C85.6773 21.4 86.424 22.1467 87.376 22.688C88.328 23.2107 89.4106 23.472 90.624 23.472C92.584 23.472 94.2266 22.6973 95.552 21.148L98.464 23.836C97.5306 24.9747 96.3733 25.8427 94.992 26.44C93.6106 27.0373 92.0706 27.336 90.372 27.336ZM119.503 7.4V27H114.967V18.964H106.063V27H101.527V7.4H106.063V15.128H114.967V7.4H119.503Z" fill="#FFCCC1" fill-opacity="0.79"/>
</svg>
