<svg width="30" height="30" viewBox="0 0 30 30" fill="none" xmlns="http://www.w3.org/2000/svg">
  <g clip-path="url(#clip0)">
    <path d="M20.0344 3.43265C15.4579 -1.14389 8.00921 -1.14389 3.43267 3.43265C-1.14288 8.01018 -1.14288 15.4578 3.43267 20.0354C7.5082 24.1099 13.8556 24.5464 18.4292 21.3648C18.5254 21.8202 18.7457 22.2547 19.0999 22.6089L25.7648 29.2738C26.736 30.2431 28.3055 30.2431 29.2718 29.2738C30.2421 28.3035 30.2421 26.734 29.2718 25.7667L22.6069 19.0998C22.2547 18.7486 21.8192 18.5274 21.3638 18.4312C24.5475 13.8566 24.1109 7.51017 20.0344 3.43265ZM17.9302 17.9311C14.5134 21.3479 8.95269 21.3479 5.5369 17.9311C2.12211 14.5144 2.12211 8.95466 5.5369 5.53788C8.95269 2.12209 14.5134 2.12209 17.9302 5.53788C21.347 8.95466 21.347 14.5144 17.9302 17.9311Z" fill="#FFE7E7"/>
  </g>
  <defs>
    <clipPath id="clip0">
      <rect width="30" height="30" fill="white"/>
    </clipPath>
  </defs>
</svg>
