<svg width="38" height="34" viewBox="0 0 38 34" fill="none" xmlns="http://www.w3.org/2000/svg">
<path d="M0 19.2403C0 18.7958 0.156701 18.4466 0.470103 18.1608C0.736495 17.8751 1.09691 17.7481 1.53567 17.7481H5.15546C5.57856 17.7481 5.9233 17.891 6.20536 18.1767C6.47175 18.4625 6.61278 18.8117 6.61278 19.2403C6.61278 19.6848 6.47175 20.0658 6.18969 20.3675C5.90763 20.6691 5.56289 20.8278 5.15546 20.8278H1.55134C1.12825 20.8278 0.767835 20.6691 0.470103 20.3516C0.156701 20.0341 0 19.669 0 19.2403ZM5.15546 6.76269C5.15546 6.3182 5.28082 5.95308 5.54722 5.6832C5.86062 5.36571 6.22103 5.20696 6.64412 5.20696C7.09856 5.20696 7.4433 5.36571 7.70969 5.6832L10.2482 8.27081C10.9691 8.9693 10.9691 9.68367 10.2482 10.4139C9.95051 10.7155 9.62144 10.8584 9.22969 10.8584C8.88495 10.8584 8.54021 10.7155 8.16412 10.4139L5.56289 7.84218C5.29649 7.55644 5.15546 7.19132 5.15546 6.76269ZM8.24247 27.8445C8.24247 27.4318 8.39917 27.0667 8.71258 26.7492C8.99464 26.4634 9.35505 26.3205 9.77814 26.3205H14.8239C14.9963 26.3205 15.1373 26.3523 15.2627 26.4475L18.9452 29.9717L22.6903 26.4317C22.8 26.3523 22.9567 26.3047 23.1447 26.3047H28.3159C28.739 26.3047 29.0994 26.4475 29.3971 26.7492C29.6948 27.0508 29.8515 27.4159 29.8515 27.8286C29.8515 28.2573 29.6948 28.6224 29.3971 28.924C29.0994 29.2256 28.739 29.3844 28.3159 29.3844H24.1163L19.1959 33.8928C19.0078 34.0357 18.8355 34.0357 18.6788 33.8928L13.8524 29.3844H9.77814C9.35505 29.3844 8.99464 29.2256 8.69691 28.924C8.39918 28.6383 8.24247 28.2731 8.24247 27.8445ZM9.71546 19.2403C9.71546 20.812 10.0132 22.2089 10.6243 23.3996C10.7183 23.5742 10.8594 23.6536 11.0474 23.6536H13.9777C14.1031 23.6536 14.1814 23.6218 14.2128 23.5424C14.2441 23.4631 14.1971 23.3678 14.1031 23.2567C13.1786 22.0819 12.7085 20.7326 12.7085 19.2403C12.7085 17.4941 13.3196 16.0019 14.5575 14.7795C15.7955 13.5571 17.2841 12.938 19.0235 12.938C20.7472 12.938 22.2202 13.5571 23.4581 14.7795C24.6804 16.0177 25.3072 17.4941 25.3072 19.2245C25.3072 20.7167 24.8371 22.0661 23.9126 23.2408C23.8029 23.3519 23.7715 23.4472 23.8029 23.5266C23.8342 23.6059 23.9126 23.6377 24.0379 23.6377H26.9839C27.1876 23.6377 27.313 23.5583 27.36 23.3837C28.0025 22.1454 28.3315 20.7485 28.3315 19.2245C28.3315 17.9704 28.0808 16.748 27.5951 15.5891C27.1093 14.4303 26.4355 13.4143 25.6049 12.5729C24.7744 11.7315 23.7872 11.0648 22.6433 10.5568C21.4994 10.0488 20.2928 9.81067 19.0392 9.81067C17.7856 9.81067 16.579 10.0647 15.4351 10.5568C14.2911 11.0648 13.3039 11.7315 12.4734 12.5729C11.6429 13.4143 10.9847 14.4144 10.4833 15.5891C9.98185 16.7639 9.71546 17.9862 9.71546 19.2403ZM17.4878 5.25458V1.55574C17.4878 1.12712 17.6445 0.761994 17.9423 0.460371C18.24 0.158749 18.6004 0 19.0235 0C19.4466 0 19.807 0.158749 20.1047 0.460371C20.4025 0.761994 20.5592 1.12712 20.5592 1.55574V5.23871C20.5592 5.66733 20.4025 6.03245 20.1047 6.33407C19.807 6.63569 19.4466 6.79444 19.0235 6.79444C18.6004 6.79444 18.24 6.63569 17.9423 6.33407C17.6289 6.03245 17.4878 5.6832 17.4878 5.25458ZM27.313 9.3503C27.313 8.9058 27.454 8.54068 27.7204 8.28668L30.2746 5.69908C30.5254 5.38158 30.8858 5.22283 31.3402 5.22283C31.7633 5.22283 32.1237 5.38158 32.4058 5.6832C32.6878 5.98483 32.8289 6.34995 32.8289 6.77857C32.8289 7.22306 32.7035 7.58819 32.4371 7.85806L29.8359 10.4457C29.4755 10.7473 29.115 10.8902 28.7546 10.8902C28.3472 10.8902 28.0025 10.7473 27.7204 10.4457C27.454 10.144 27.313 9.77892 27.313 9.3503ZM31.3715 19.2403C31.3715 18.8117 31.5126 18.4625 31.779 18.1767C32.0454 17.891 32.4058 17.7481 32.8289 17.7481H36.4643C36.8874 17.7481 37.2478 17.891 37.5456 18.1767C37.8433 18.4625 38 18.8117 38 19.2403C38 19.669 37.8433 20.0341 37.5456 20.3516C37.2478 20.6691 36.8874 20.8278 36.4643 20.8278H32.8289C32.4214 20.8278 32.0767 20.6691 31.7946 20.3675C31.5126 20.0658 31.3715 19.6848 31.3715 19.2403Z" fill="#FFE7E7"/>
</svg>
