<svg width="37" height="20" viewBox="0 0 37 20" fill="none" xmlns="http://www.w3.org/2000/svg">
<path d="M0 12.5804C0 12.9569 0.139916 13.2863 0.435294 13.5529C0.684034 13.851 1.0105 13.9922 1.41471 13.9922H24.2521C24.7029 13.9922 25.0761 14.149 25.387 14.4627C25.6979 14.7765 25.8534 15.1686 25.8534 15.6235C25.8534 16.0784 25.6979 16.4549 25.387 16.7529C25.0761 17.051 24.7029 17.2078 24.2366 17.2078C23.7857 17.2078 23.3971 17.051 23.1017 16.7529C22.8529 16.4706 22.542 16.3451 22.1689 16.3451C21.7803 16.3451 21.4538 16.4863 21.1739 16.7529C20.8941 17.0196 20.7542 17.349 20.7542 17.7098C20.7542 18.102 20.8941 18.4314 21.1895 18.698C22.0601 19.5608 23.0861 20 24.2366 20C25.4492 20 26.4908 19.5765 27.3613 18.7294C28.2319 17.8824 28.6517 16.8627 28.6517 15.6392C28.6517 14.4157 28.2164 13.3804 27.3458 12.502C26.4752 11.6235 25.4336 11.1843 24.2366 11.1843H1.41471C1.02605 11.1843 0.69958 11.3255 0.419748 11.5922C0.139916 11.8588 0 12.1882 0 12.5804ZM0 7.43529C0 7.79608 0.139916 8.1098 0.435294 8.39216C0.69958 8.67451 1.02605 8.8 1.41471 8.8H32.5693C33.7819 8.8 34.8235 8.37647 35.6941 7.51372C36.5647 6.66667 37 5.63137 37 4.42353C37 3.21569 36.5647 2.16471 35.6941 1.30196C34.8235 0.439216 33.7819 0 32.5693 0C31.3723 0 30.3618 0.42353 29.5378 1.2549C29.258 1.50588 29.1181 1.85098 29.1181 2.30588C29.1181 2.71373 29.258 3.04314 29.5223 3.29412C29.7866 3.5451 30.113 3.67059 30.5017 3.67059C30.8748 3.67059 31.2013 3.5451 31.4811 3.29412C31.7765 2.96471 32.134 2.80784 32.5693 2.80784C33.0202 2.80784 33.3933 2.96471 33.7042 3.27843C34.0151 3.59216 34.1706 3.96863 34.1706 4.42353C34.1706 4.87843 34.0151 5.2549 33.7042 5.55294C33.3933 5.85098 33.0202 6.00784 32.5693 6.00784H1.41471C1.02605 6.00784 0.69958 6.14902 0.419748 6.41569C0.139916 6.71373 0 7.04314 0 7.43529Z" fill="#FFE7E7"/>
</svg>
